<svg width="354" height="322" viewBox="0 0 354 322" fill="none" xmlns="http://www.w3.org/2000/svg">
<path d="M30.5179 27.6617V20.8348C30.5179 9.52255 38.7146 0.352295 48.8278 0.352295H146.482C159.221 0.352295 170.438 7.62711 177 18.6652C183.562 7.62711 194.779 0.352295 207.518 0.352295H305.172C315.284 0.352295 323.482 9.52255 323.482 20.8348V27.6617H329.573C343.06 27.6617 354 39.8136 354 54.9083V273.381C354 273.687 353.995 273.991 353.986 274.294V287.035C353.986 298.334 345.802 307.589 335.663 307.589L198.147 307.59C193.926 315.754 186.037 321.245 177 321.245C167.963 321.245 160.074 315.754 155.853 307.59L18.324 307.592C8.18402 307.592 0 298.472 0 287.174V54.9083C0 39.8136 10.9396 27.6617 24.4273 27.6617H30.5179ZM177.024 251.304H176.976L177 251.358L177.024 251.304ZM22.2523 41.5301C16.5132 42.666 12.2066 48.2268 12.2066 54.9083V273.516C12.2066 281.019 17.6363 287.107 24.4273 287.107H159.374L161.136 290.516C164.311 296.656 170.229 300.761 177 300.761C183.771 300.761 189.689 296.656 192.864 290.516L194.626 287.107H329.573C336.311 287.107 341.793 280.941 341.793 273.381V54.9083C341.793 48.2268 337.487 42.666 331.748 41.5301L335.69 48.1453V246.142C335.69 257.454 327.492 266.624 317.379 266.624H183.824L177 281.891L170.176 266.624H36.6212C26.508 266.624 18.3099 257.454 18.3099 246.142V48.1453L22.2523 41.5301Z" fill="#648DB3"/>
<path d="M30.5179 27.3089V20.4825C30.5179 9.17025 38.7146 0 48.8278 0H146.482C159.221 0 170.438 7.27483 177 18.3129C183.562 7.27483 194.779 0 207.518 0H305.172C315.284 0 323.482 9.17025 323.482 20.4825V27.3089L329.573 27.3102C343.06 27.3102 354 39.4621 354 54.5555V273.028C354 273.335 353.995 273.639 353.986 273.943V286.684C353.986 297.981 345.802 307.238 335.663 307.238H266.905L198.147 307.239C193.926 315.401 186.037 320.892 177 320.892C167.963 320.892 160.074 315.401 155.853 307.239L18.324 307.24C8.18402 307.24 0 298.12 0 286.822V54.5555C0 39.4621 10.9396 27.3102 24.4273 27.3102L30.5179 27.3089ZM48.8278 13.655C45.4572 13.655 42.7245 16.7117 42.7245 20.4825V225.307C42.7245 229.077 45.4572 232.135 48.8278 232.135H149.704C157.743 232.135 172.543 240.669 177.024 250.953V152.169L177 38.2014C177 23.1182 159.966 13.655 146.482 13.655H48.8278ZM177 38.2014L177.018 136.252L177.024 250.953C183.824 241.306 196.257 232.135 204.296 232.135H305.172C308.543 232.135 311.276 229.077 311.276 225.307V20.4825C311.276 16.7117 308.543 13.655 305.172 13.655H207.518C194.034 13.655 177 23.1182 177 38.2014ZM177.024 250.953H176.976L177 251.006L177.024 250.953Z" fill="#52357B"/>
<path d="M30.5179 27.3089V20.4825C30.5179 9.17025 38.7146 0 48.8278 0H146.482C159.221 0 170.438 7.27483 177 18.3129C183.562 7.27483 194.779 0 207.518 0H305.172C315.284 0 323.482 9.17025 323.482 20.4825V27.3089L329.573 27.3102C343.06 27.3102 354 39.4621 354 54.5555V273.028C354 273.335 353.995 273.639 353.986 273.943V286.684C353.986 297.981 345.802 307.238 335.663 307.238L198.147 307.239C193.926 315.401 186.037 320.892 177 320.892C167.963 320.892 160.074 315.401 155.853 307.239L18.324 307.24C8.18402 307.24 0 298.12 0 286.822V54.5555C0 39.4621 10.9396 27.3102 24.4273 27.3102L30.5179 27.3089ZM48.8278 13.655C45.4572 13.655 42.7245 16.7117 42.7245 20.4825V225.307C42.7245 229.077 45.4572 232.135 48.8278 232.135H149.704C157.743 232.135 172.543 240.669 177.024 250.953V152.169L177 38.2014C177 23.1182 159.966 13.655 146.482 13.655H48.8278ZM177 38.2014L177.018 136.252L177.024 250.953C183.824 241.306 196.257 232.135 204.296 232.135H305.172C308.543 232.135 311.276 229.077 311.276 225.307V20.4825C311.276 16.7117 308.543 13.655 305.172 13.655H207.518C194.034 13.655 177 23.1182 177 38.2014ZM177.024 250.953H176.976L177 251.006L177.024 250.953ZM22.2523 41.1773C16.5132 42.3145 12.2066 47.874 12.2066 54.5555V273.163C12.2066 280.666 17.6363 286.754 24.4273 286.754H159.374L161.136 290.163C164.311 296.303 170.229 300.41 177 300.41C183.771 300.41 189.689 296.303 192.864 290.163L194.626 286.754H329.573C336.311 286.754 341.793 280.59 341.793 273.028V54.5555C341.793 47.874 337.487 42.3145 331.748 41.1773L335.69 47.7925V245.789C335.69 257.102 327.492 266.272 317.379 266.272H183.824L177 281.538L170.176 266.272H36.6212C26.508 266.272 18.3099 257.102 18.3099 245.789V47.7925L22.2523 41.1773Z" fill="#5459AC"/>
<path d="M249.034 99.9616C251.497 97.4518 251.459 93.4203 248.947 90.9588L208.041 50.8307C205.532 48.3693 201.5 48.4075 199.037 50.9173C196.576 53.4284 196.614 57.4587 199.124 59.9214L235.485 95.5901L199.817 131.952C197.354 134.461 197.393 138.493 199.903 140.956C202.413 143.417 206.445 143.379 208.907 140.869L249.034 99.9616ZM110.784 96.7896L110.845 103.155L177.698 102.513L177.637 96.1466L177.576 89.7797L110.723 90.4227L110.784 96.7896ZM177.637 96.1466L177.698 102.513L244.55 101.87L244.489 95.5035L244.428 89.1366L177.576 89.7797L177.637 96.1466Z" fill="#5459AC"/>
<path d="M106.281 155.943C103.796 158.43 103.796 162.462 106.281 164.949L146.8 205.467C149.287 207.953 153.319 207.953 155.805 205.467C158.291 202.981 158.291 198.949 155.805 196.462L119.788 160.446L155.805 124.43C158.291 121.943 158.291 117.911 155.805 115.426C153.319 112.939 149.287 112.939 146.8 115.426L106.281 155.943ZM244.496 160.446V154.079H177.639V160.446V166.813H244.496V160.446ZM177.639 160.446V154.079H110.784V160.446V166.813H177.639V160.446Z" fill="#5459AC"/>
</svg>
