<svg width="410" height="366" viewBox="0 0 410 366" fill="none" xmlns="http://www.w3.org/2000/svg">
<path d="M94.15 20.5811V15.5016C94.15 7.08491 100.249 0.261963 107.774 0.261963H180.431C189.91 0.261963 198.255 5.67466 203.137 13.8873C208.02 5.67466 216.365 0.261963 225.844 0.261963H298.502C306.025 0.261963 312.125 7.08491 312.125 15.5016V20.5811L316.656 20.5814C326.692 20.5814 334.831 29.6226 334.831 40.8532V203.403C334.831 203.631 334.828 203.858 334.82 204.083V213.563C334.82 221.97 328.732 228.856 321.188 228.856L218.872 228.857C215.731 234.931 209.861 239.016 203.137 239.016C196.414 239.016 190.544 234.931 187.403 228.857L85.0778 228.858C77.5334 228.858 71.4442 222.072 71.4442 213.667V40.8532C71.4442 29.6226 79.5836 20.5814 89.6189 20.5814L94.15 20.5811ZM203.156 186.978H203.12L203.137 187.018L203.156 186.978ZM88.0006 30.8997C83.7305 31.7449 80.5262 35.882 80.5262 40.8532V203.504C80.5262 209.086 84.5662 213.616 89.6189 213.616H190.023L191.335 216.153C193.697 220.721 198.1 223.775 203.137 223.775C208.175 223.775 212.579 220.721 214.94 216.153L216.252 213.616H316.656C321.67 213.616 325.749 209.029 325.749 203.403V40.8532C325.749 35.882 322.544 31.7449 318.274 30.8997L321.208 35.821V183.137C321.208 191.553 315.109 198.377 307.584 198.377H208.215L203.137 209.736L198.06 198.377H98.6916C91.167 198.377 85.0673 191.553 85.0673 183.137V35.821L88.0006 30.8997Z" fill="#648DB3"/>
<path d="M94.15 20.3192V15.2396C94.15 6.82295 100.249 0 107.774 0H180.431C189.91 0 198.255 5.4127 203.137 13.6253C208.02 5.4127 216.365 0 225.844 0H298.502C306.025 0 312.125 6.82295 312.125 15.2396V20.3192L316.656 20.3195C326.692 20.3195 334.831 29.3607 334.831 40.5911V203.141C334.831 203.37 334.828 203.596 334.82 203.822V213.302C334.82 221.708 328.732 228.594 321.188 228.594H270.029L218.872 228.595C215.731 234.669 209.861 238.754 203.137 238.754C196.414 238.754 190.544 234.669 187.403 228.595L85.0778 228.596C77.5334 228.596 71.4442 221.811 71.4442 213.404V40.5911C71.4442 29.3607 79.5836 20.3195 89.6189 20.3195L94.15 20.3192ZM107.774 10.1597C105.266 10.1597 103.232 12.434 103.232 15.2396V167.635C103.232 170.441 105.266 172.715 107.774 172.715H182.828C188.81 172.715 199.821 179.065 203.156 186.716V113.219L203.137 28.4231C203.137 17.201 190.464 10.1597 180.431 10.1597H107.774ZM203.137 28.4231L203.151 101.375L203.156 186.716C208.215 179.539 217.466 172.715 223.446 172.715H298.502C301.01 172.715 303.043 170.441 303.043 167.635V15.2396C303.043 12.434 301.01 10.1597 298.502 10.1597H225.844C215.811 10.1597 203.137 17.201 203.137 28.4231ZM203.156 186.716H203.12L203.137 186.757L203.156 186.716Z" fill="#52357B"/>
<path d="M94.15 20.3192V15.2396C94.15 6.82295 100.249 0 107.774 0H180.431C189.91 0 198.255 5.4127 203.137 13.6253C208.02 5.4127 216.365 0 225.844 0H298.502C306.025 0 312.125 6.82295 312.125 15.2396V20.3192L316.656 20.3195C326.692 20.3195 334.831 29.3607 334.831 40.5911V203.141C334.831 203.37 334.828 203.596 334.82 203.822V213.302C334.82 221.708 328.732 228.594 321.188 228.594L218.872 228.595C215.731 234.669 209.861 238.754 203.137 238.754C196.414 238.754 190.544 234.669 187.403 228.595L85.0778 228.596C77.5334 228.596 71.4442 221.811 71.4442 213.404V40.5911C71.4442 29.3607 79.5836 20.3195 89.6189 20.3195L94.15 20.3192ZM107.774 10.1597C105.266 10.1597 103.232 12.434 103.232 15.2396V167.635C103.232 170.441 105.266 172.715 107.774 172.715H182.828C188.81 172.715 199.821 179.065 203.156 186.716V113.219L203.137 28.4231C203.137 17.201 190.464 10.1597 180.431 10.1597H107.774ZM203.137 28.4231L203.151 101.375L203.156 186.716C208.215 179.539 217.466 172.715 223.446 172.715H298.502C301.01 172.715 303.043 170.441 303.043 167.635V15.2396C303.043 12.434 301.01 10.1597 298.502 10.1597H225.844C215.811 10.1597 203.137 17.201 203.137 28.4231ZM203.156 186.716H203.12L203.137 186.757L203.156 186.716ZM88.0006 30.6377C83.7305 31.483 80.5262 35.6201 80.5262 40.5911V203.242C80.5262 208.824 84.5662 213.354 89.6189 213.354H190.023L191.335 215.89C193.697 220.459 198.1 223.514 203.137 223.514C208.175 223.514 212.579 220.459 214.94 215.89L216.252 213.354H316.656C321.67 213.354 325.749 208.767 325.749 203.141V40.5911C325.749 35.6201 322.544 31.483 318.274 30.6377L321.208 35.559V182.875C321.208 191.292 315.109 198.115 307.584 198.115H208.215L203.137 209.473L198.06 198.115H98.6916C91.167 198.115 85.0673 191.292 85.0673 182.875V35.559L88.0006 30.6377Z" fill="#5459AC"/>
<path d="M405.404 315.127C407.954 315.139 410.012 317.216 410 319.766C409.988 322.316 407.912 324.374 405.362 324.362L4.59572 322.514C2.0458 322.502 -0.0117684 320.425 -1.0896e-05 317.875C0.0119376 315.325 2.08904 313.268 4.639 313.279L405.404 315.127Z" fill="#5459AC"/>
<g filter="url(#filter0_d_37_273)">
<path d="M88.4535 286.481C88.4535 289.234 88.0982 291.662 87.3876 293.763C86.7064 295.866 85.7296 297.687 84.4562 299.227C83.2132 300.766 81.7323 302.053 80.0156 303.09C78.2979 304.127 76.4182 304.956 74.3756 305.577C72.3622 306.2 70.2153 306.643 67.9358 306.91C65.6857 307.176 63.391 307.309 61.0518 307.309C57.9727 307.309 55.1305 307.072 52.525 306.599C49.9196 306.155 47.4622 305.444 45.1529 304.466C42.8731 303.461 40.6673 302.172 38.5356 300.603C36.4335 299.034 34.3314 297.124 32.2292 294.874L41.2891 285.681C42.1181 287.725 43.258 289.62 44.7087 291.365C46.1595 293.083 47.7435 294.563 49.4607 295.807C51.2076 297.05 53.0136 298.027 54.8788 298.737C56.7442 299.448 58.5058 299.805 60.1639 299.805C62.1177 299.805 63.9537 299.671 65.6706 299.405C67.3882 299.107 68.8832 298.634 70.1566 297.984C71.4291 297.332 72.421 296.473 73.1316 295.407C73.8715 294.312 74.242 292.95 74.242 291.321C74.242 290.078 73.9606 289.012 73.3978 288.124C72.836 287.235 72.096 286.481 71.178 285.859C70.2892 285.207 69.2679 284.66 68.113 284.216C66.959 283.771 65.7747 283.401 64.5601 283.105C63.3758 282.78 62.2067 282.499 61.0518 282.261C59.8973 281.996 58.8759 281.728 57.9876 281.462C56.2408 280.958 54.4199 280.426 52.525 279.863C50.6302 279.271 48.765 278.605 46.9293 277.865C45.0936 277.124 43.3469 276.28 41.6889 275.333C40.0604 274.357 38.6245 273.216 37.3809 271.914C36.1375 270.581 35.1456 269.056 34.4053 267.339C33.6652 265.593 33.2951 263.594 33.2951 261.344C33.2951 258.649 33.6207 256.266 34.2722 254.193C34.9531 252.092 35.9006 250.27 37.1144 248.731C38.3284 247.192 39.7643 245.903 41.4223 244.867C43.0803 243.802 44.9012 242.958 46.8849 242.336C48.8686 241.685 50.9707 241.225 53.1913 240.959C55.4414 240.664 57.736 240.515 60.0749 240.515C63.2726 240.515 66.1746 240.811 68.78 241.403C71.4148 241.995 73.8421 242.838 76.063 243.935C78.2837 245.03 80.3112 246.348 82.1474 247.888C84.0129 249.397 85.759 251.085 87.3876 252.949L78.3282 262.144C77.6176 260.012 76.6257 258.087 75.3523 256.37C74.1083 254.652 72.7175 253.187 71.178 251.973C69.6383 250.73 68.0249 249.783 66.3366 249.131C64.6492 248.449 63.0205 248.11 61.4516 248.11C59.4088 248.11 57.5287 248.257 55.8115 248.554C54.0942 248.82 52.6139 249.279 51.3704 249.931C50.1565 250.552 49.209 251.41 48.5281 252.506C47.8471 253.572 47.5066 254.904 47.5066 256.503C47.5066 257.776 47.7583 258.857 48.2616 259.744C48.765 260.634 49.4311 261.388 50.2601 262.01C51.1187 262.632 52.081 263.15 53.1469 263.565C54.2127 263.95 55.3082 264.29 56.4332 264.586C57.5879 264.882 58.713 265.148 59.8085 265.385C60.9335 265.593 61.9547 265.829 62.8727 266.095C64.6492 266.599 66.5147 267.132 68.4683 267.695C70.4228 268.258 72.3471 268.924 74.242 269.693C76.1368 270.434 77.9426 271.292 79.6603 272.269C81.3771 273.246 82.8873 274.416 84.19 275.778C85.4927 277.109 86.5292 278.665 87.2986 280.44C88.0689 282.188 88.4535 284.201 88.4535 286.481ZM120.963 306.022H107.462L93.4279 254.726H108.439L117.232 290.699L124.559 254.726H138.06L147.032 291.676L155.692 254.726H166.084L150.54 306.022H137.039L129.445 274.845L120.963 306.022ZM224.75 306.022H209.74V299.892C207.964 302.32 205.817 304.127 203.301 305.31C200.813 306.466 198.074 307.043 195.085 307.043C191.177 307.043 187.683 306.348 184.604 304.956C181.525 303.563 178.919 301.669 176.788 299.271C174.656 296.842 173.028 294.001 171.902 290.744C170.777 287.487 170.214 283.994 170.214 280.262C170.214 276.532 170.777 273.04 171.902 269.782C173.028 266.525 174.656 263.698 176.788 261.3C178.919 258.872 181.525 256.962 184.604 255.57C187.683 254.179 191.177 253.483 195.085 253.483C197.068 253.483 198.948 253.779 200.724 254.371C202.531 254.964 204.175 255.808 205.654 256.903C207.164 257.969 208.483 259.271 209.606 260.811C210.762 262.321 211.665 264.008 212.317 265.874L218.978 254.726H224.75V306.022ZM209.652 280.262C209.652 278.931 209.577 277.524 209.429 276.044C209.311 274.563 209.088 273.098 208.763 271.647C208.437 270.197 207.978 268.819 207.385 267.516C206.824 266.185 206.083 265.016 205.166 264.008C204.277 262.972 203.197 262.158 201.924 261.565C200.651 260.974 199.169 260.678 197.482 260.678C195.795 260.678 194.329 260.989 193.086 261.611C191.843 262.203 190.777 263.016 189.888 264.052C189 265.06 188.26 266.229 187.667 267.562C187.105 268.893 186.661 270.285 186.336 271.736C186.01 273.187 185.773 274.653 185.626 276.132C185.507 277.583 185.447 278.961 185.447 280.262C185.447 281.566 185.507 282.957 185.626 284.438C185.773 285.918 186.01 287.383 186.336 288.834C186.661 290.286 187.105 291.676 187.667 293.009C188.26 294.341 189 295.525 189.888 296.562C190.777 297.568 191.843 298.383 193.086 299.005C194.329 299.597 195.795 299.892 197.482 299.892C199.022 299.892 200.385 299.581 201.569 298.96C202.782 298.309 203.833 297.45 204.722 296.384C205.64 295.318 206.409 294.104 207.031 292.742C207.653 291.381 208.157 289.973 208.541 288.524C208.926 287.073 209.207 285.637 209.385 284.216C209.562 282.765 209.652 281.447 209.652 280.262ZM291.857 280.262C291.857 283.994 291.293 287.487 290.168 290.744C289.044 294.001 287.415 296.842 285.283 299.271C283.151 301.669 280.546 303.563 277.467 304.956C274.387 306.348 270.895 307.043 266.986 307.043C263.995 307.043 261.242 306.466 258.725 305.31C256.238 304.127 254.107 302.32 252.33 299.892V329.692H237.319V254.726H243.093L249.754 265.874C250.406 264.008 251.294 262.321 252.42 260.811C253.573 259.271 254.891 257.969 256.372 256.903C257.881 255.808 259.525 254.964 261.302 254.371C263.107 253.779 265.002 253.483 266.986 253.483C270.895 253.483 274.387 254.179 277.467 255.57C280.546 256.962 283.151 258.872 285.283 261.3C287.415 263.698 289.044 266.525 290.168 269.782C291.293 273.04 291.857 276.532 291.857 280.262ZM276.623 280.262C276.623 278.961 276.549 277.583 276.401 276.132C276.282 274.653 276.061 273.187 275.735 271.736C275.409 270.285 274.951 268.893 274.359 267.562C273.795 266.229 273.069 265.06 272.182 264.052C271.295 263.016 270.213 262.203 268.94 261.611C267.697 260.989 266.245 260.678 264.587 260.678C262.871 260.678 261.375 260.974 260.102 261.565C258.858 262.158 257.779 262.972 256.86 264.008C255.972 265.016 255.232 266.185 254.64 267.516C254.077 268.819 253.633 270.197 253.307 271.647C252.981 273.098 252.745 274.563 252.597 276.044C252.478 277.524 252.42 278.931 252.42 280.262C252.42 281.447 252.507 282.765 252.686 284.216C252.863 285.637 253.145 287.073 253.53 288.524C253.915 289.973 254.418 291.381 255.04 292.742C255.662 294.104 256.416 295.318 257.305 296.384C258.223 297.45 259.273 298.309 260.458 298.96C261.671 299.581 263.048 299.892 264.587 299.892C266.275 299.892 267.741 299.597 268.984 299.005C270.227 298.383 271.295 297.568 272.182 296.562C273.069 295.525 273.795 294.341 274.359 293.009C274.951 291.676 275.409 290.286 275.735 288.834C276.061 287.383 276.282 285.918 276.401 284.438C276.549 282.957 276.623 281.566 276.623 280.262ZM316.548 306.022H301.537V231.1H307.311L316.548 246.688V306.022ZM374.994 254.726L356.341 299.848C354.209 305 351.826 310.092 349.19 315.125C346.585 320.189 343.758 325.044 340.708 329.692L334.846 326.139C335.586 324.807 336.459 323.267 337.466 321.52C338.473 319.774 339.465 317.968 340.441 316.103C341.419 314.238 342.322 312.387 343.151 310.551C343.979 308.745 344.617 307.087 345.061 305.577L322.633 254.726H337.644L352.877 289.412L364.601 254.726H374.994Z" fill="#52357B"/>
</g>
<path d="M58.165 339.023C58.5516 338.795 59.1313 338.579 59.9045 338.374C60.7003 338.169 61.4962 338.067 62.292 338.067C63.4289 338.067 64.4294 338.238 65.2935 338.579C66.1803 338.897 66.7487 339.409 66.9989 340.113C67.4081 341.296 67.8516 342.671 68.329 344.24C68.8066 345.809 69.2841 347.436 69.7616 349.118C70.2391 350.778 70.7052 352.427 71.16 354.063C71.6147 355.678 72.0127 357.111 72.3538 358.361C72.0809 358.68 71.6716 358.93 71.1259 359.112C70.5802 359.316 69.9321 359.419 69.1818 359.419C68.636 359.419 68.1699 359.373 67.7833 359.282C67.4195 359.191 67.1125 359.055 66.8625 358.873C66.635 358.691 66.4417 358.453 66.2826 358.157C66.1462 357.861 66.0211 357.52 65.9074 357.134L65.2935 354.78H59.12C58.938 355.462 58.7562 356.167 58.5743 356.895C58.3924 357.622 58.2104 358.327 58.0285 359.009C57.7102 359.123 57.3691 359.214 57.0053 359.282C56.6643 359.373 56.2436 359.419 55.7434 359.419C54.5837 359.419 53.7196 359.226 53.1512 358.839C52.6054 358.43 52.3326 357.873 52.3326 357.167C52.3326 356.849 52.378 356.531 52.469 356.212C52.56 355.895 52.6623 355.519 52.776 355.087C52.9351 354.473 53.1512 353.712 53.424 352.802C53.7196 351.892 54.038 350.914 54.379 349.869C54.7201 348.8 55.0839 347.708 55.4705 346.594C55.857 345.48 56.2208 344.434 56.5619 343.456C56.903 342.456 57.2099 341.569 57.4828 340.796C57.7784 340.023 58.0058 339.432 58.165 339.023ZM62.2579 343.422C61.9395 344.377 61.5758 345.445 61.1665 346.628C60.7799 347.788 60.4274 348.97 60.1091 350.176H64.3384C64.0201 348.947 63.6904 347.754 63.3494 346.594C63.031 345.411 62.7354 344.355 62.4626 343.422H62.2579ZM82.3113 341.99C83.6756 341.99 84.9376 342.172 86.0972 342.536C87.2796 342.876 88.2915 343.411 89.1329 344.139C89.9741 344.866 90.6336 345.787 91.111 346.901C91.5886 347.992 91.8274 349.3 91.8274 350.824C91.8274 352.279 91.6227 353.552 91.2134 354.643C90.8041 355.735 90.2243 356.656 89.4739 357.406C88.7236 358.134 87.814 358.68 86.7453 359.044C85.6993 359.407 84.5283 359.589 83.2322 359.589C82.2545 359.589 81.3449 359.442 80.5036 359.146V364.808C80.2762 364.876 79.9124 364.944 79.4122 365.012C78.9119 365.103 78.4003 365.149 77.8773 365.149C77.377 365.149 76.9223 365.115 76.513 365.046C76.1265 364.978 75.7967 364.842 75.5239 364.637C75.251 364.432 75.0464 364.149 74.91 363.785C74.7735 363.443 74.7053 362.989 74.7053 362.42V346.049C74.7053 345.434 74.8304 344.934 75.0805 344.548C75.3533 344.161 75.7172 343.809 76.1719 343.49C76.8768 343.035 77.7523 342.671 78.7982 342.399C79.8442 342.127 81.0153 341.99 82.3113 341.99ZM82.3795 355.019C84.7216 355.019 85.8926 353.62 85.8926 350.824C85.8926 349.368 85.597 348.288 85.0058 347.583C84.4374 346.879 83.6073 346.526 82.516 346.526C82.0839 346.526 81.6973 346.583 81.3563 346.697C81.0152 346.787 80.7196 346.901 80.4695 347.038V354.542C80.7424 354.677 81.038 354.791 81.3563 354.882C81.6746 354.973 82.0157 355.019 82.3795 355.019ZM100.455 359.044C100.228 359.112 99.8645 359.18 99.3639 359.248C98.8865 359.316 98.386 359.35 97.8633 359.35C97.3628 359.35 96.9084 359.316 96.4993 359.248C96.1124 359.18 95.7827 359.044 95.5103 358.839C95.2369 358.635 95.0208 358.361 94.862 358.02C94.7253 357.657 94.657 357.19 94.657 356.621V346.389C94.657 345.867 94.7484 345.423 94.9303 345.059C95.1344 344.673 95.4189 344.332 95.7827 344.036C96.1466 343.741 96.5898 343.479 97.1134 343.251C97.6592 343.001 98.2382 342.786 98.8523 342.604C99.4664 342.422 100.104 342.285 100.763 342.194C101.422 342.08 102.082 342.024 102.741 342.024C103.833 342.024 104.696 342.24 105.333 342.671C105.97 343.081 106.288 343.763 106.288 344.718C106.288 345.036 106.243 345.355 106.151 345.674C106.061 345.969 105.947 346.242 105.811 346.492C105.333 346.492 104.844 346.515 104.344 346.56C103.844 346.605 103.355 346.674 102.877 346.765C102.399 346.856 101.945 346.958 101.513 347.072C101.104 347.162 100.751 347.277 100.455 347.412V359.044ZM116.813 359.624C115.471 359.624 114.221 359.442 113.061 359.078C111.924 358.691 110.924 358.123 110.06 357.372C109.218 356.622 108.548 355.679 108.047 354.542C107.57 353.404 107.331 352.074 107.331 350.55C107.331 349.05 107.57 347.765 108.047 346.697C108.548 345.605 109.196 344.718 109.991 344.036C110.787 343.332 111.697 342.82 112.72 342.501C113.743 342.16 114.79 341.99 115.858 341.99C117.063 341.99 118.155 342.172 119.133 342.536C120.133 342.899 120.985 343.399 121.691 344.036C122.418 344.673 122.975 345.434 123.361 346.321C123.771 347.208 123.975 348.174 123.975 349.221C123.975 349.994 123.759 350.585 123.328 350.994C122.896 351.404 122.293 351.665 121.52 351.779L113.095 353.04C113.345 353.791 113.857 354.36 114.63 354.746C115.404 355.11 116.29 355.292 117.29 355.292C118.223 355.292 119.099 355.178 119.917 354.951C120.758 354.701 121.441 354.416 121.963 354.098C122.327 354.326 122.635 354.643 122.884 355.053C123.134 355.462 123.26 355.895 123.26 356.349C123.26 357.372 122.782 358.134 121.827 358.635C121.099 359.021 120.281 359.282 119.371 359.419C118.461 359.555 117.609 359.624 116.813 359.624ZM115.858 346.219C115.312 346.219 114.835 346.31 114.426 346.492C114.039 346.674 113.72 346.913 113.471 347.208C113.221 347.481 113.027 347.799 112.891 348.163C112.777 348.504 112.709 348.857 112.686 349.221L118.519 348.266C118.45 347.811 118.2 347.356 117.768 346.901C117.336 346.447 116.699 346.219 115.858 346.219ZM137.272 348.572C137.272 347.868 137.068 347.356 136.658 347.038C136.272 346.697 135.737 346.526 135.055 346.526C134.6 346.526 134.146 346.583 133.69 346.697C133.259 346.81 132.883 346.98 132.566 347.208V359.044C132.337 359.112 131.974 359.18 131.474 359.248C130.997 359.316 130.496 359.35 129.973 359.35C129.473 359.35 129.018 359.316 128.609 359.248C128.223 359.18 127.893 359.044 127.619 358.839C127.347 358.635 127.131 358.361 126.971 358.02C126.835 357.657 126.767 357.19 126.767 356.621V346.389C126.767 345.775 126.892 345.276 127.142 344.889C127.414 344.503 127.778 344.15 128.234 343.831C129.007 343.285 129.973 342.842 131.132 342.501C132.315 342.16 133.622 341.99 135.055 341.99C137.624 341.99 139.602 342.558 140.99 343.695C142.377 344.809 143.07 346.367 143.07 348.367V359.044C142.843 359.112 142.479 359.18 141.979 359.248C141.501 359.316 141.002 359.35 140.478 359.35C139.978 359.35 139.523 359.316 139.114 359.248C138.727 359.18 138.397 359.044 138.125 358.839C137.852 358.635 137.635 358.361 137.477 358.02C137.34 357.657 137.272 357.19 137.272 356.621V348.572ZM145.936 350.79C145.936 349.289 146.163 347.992 146.617 346.901C147.072 345.787 147.698 344.866 148.494 344.139C149.312 343.411 150.256 342.876 151.324 342.536C152.416 342.172 153.587 341.99 154.837 341.99C155.292 341.99 155.736 342.035 156.168 342.127C156.6 342.194 156.952 342.285 157.225 342.399V336.874C157.452 336.805 157.816 336.737 158.317 336.669C158.816 336.578 159.328 336.532 159.851 336.532C160.351 336.532 160.795 336.566 161.181 336.635C161.59 336.703 161.932 336.84 162.204 337.044C162.478 337.249 162.682 337.533 162.819 337.897C162.955 338.238 163.024 338.692 163.024 339.261V355.428C163.024 356.497 162.523 357.349 161.523 357.986C160.863 358.418 160.01 358.793 158.964 359.112C157.919 359.453 156.714 359.624 155.349 359.624C153.871 359.624 152.541 359.419 151.358 359.009C150.198 358.6 149.209 358.008 148.391 357.235C147.595 356.463 146.981 355.542 146.549 354.473C146.14 353.382 145.936 352.154 145.936 350.79ZM155.622 346.526C154.394 346.526 153.45 346.879 152.791 347.583C152.131 348.288 151.802 349.357 151.802 350.79C151.802 352.199 152.109 353.268 152.723 353.996C153.336 354.701 154.224 355.053 155.383 355.053C155.793 355.053 156.157 354.996 156.474 354.882C156.816 354.746 157.077 354.598 157.259 354.439V346.935C156.804 346.663 156.258 346.526 155.622 346.526ZM173.731 355.394C174.117 355.394 174.538 355.36 174.993 355.292C175.471 355.201 175.823 355.087 176.05 354.951V352.222L173.595 352.427C172.958 352.472 172.435 352.609 172.026 352.836C171.617 353.063 171.412 353.404 171.412 353.859C171.412 354.314 171.582 354.689 171.923 354.985C172.287 355.257 172.89 355.394 173.731 355.394ZM173.458 341.99C174.686 341.99 175.801 342.115 176.801 342.365C177.824 342.615 178.689 343.001 179.393 343.525C180.121 344.025 180.678 344.673 181.065 345.469C181.451 346.242 181.645 347.162 181.645 348.232V355.872C181.645 356.463 181.474 356.952 181.133 357.338C180.814 357.702 180.427 358.02 179.973 358.293C178.495 359.18 176.414 359.624 173.731 359.624C172.526 359.624 171.435 359.51 170.457 359.282C169.502 359.055 168.672 358.714 167.967 358.259C167.285 357.804 166.751 357.224 166.364 356.52C166 355.814 165.818 354.996 165.818 354.063C165.818 352.494 166.284 351.289 167.216 350.448C168.149 349.607 169.593 349.084 171.548 348.879L176.016 348.402V348.163C176.016 347.504 175.72 347.038 175.129 346.765C174.562 346.469 173.731 346.321 172.64 346.321C171.775 346.321 170.934 346.412 170.116 346.594C169.297 346.776 168.558 347.003 167.899 347.277C167.603 347.072 167.353 346.765 167.149 346.355C166.944 345.923 166.841 345.48 166.841 345.025C166.841 344.434 166.978 343.968 167.25 343.627C167.547 343.263 167.99 342.956 168.581 342.706C169.24 342.456 170.013 342.274 170.9 342.16C171.81 342.046 172.663 341.99 173.458 341.99ZM200.784 359.624C199.442 359.624 198.191 359.442 197.031 359.078C195.895 358.691 194.894 358.123 194.03 357.372C193.189 356.622 192.518 355.679 192.018 354.542C191.54 353.404 191.301 352.074 191.301 350.55C191.301 349.05 191.54 347.765 192.018 346.697C192.518 345.605 193.166 344.718 193.962 344.036C194.758 343.332 195.668 342.82 196.691 342.501C197.714 342.16 198.759 341.99 199.829 341.99C201.034 341.99 202.124 342.172 203.102 342.536C204.103 342.899 204.956 343.399 205.66 344.036C206.388 344.673 206.946 345.434 207.332 346.321C207.741 347.208 207.946 348.174 207.946 349.221C207.946 349.994 207.73 350.585 207.298 350.994C206.866 351.404 206.263 351.665 205.49 351.779L197.066 353.04C197.316 353.791 197.828 354.36 198.6 354.746C199.373 355.11 200.26 355.292 201.261 355.292C202.193 355.292 203.068 355.178 203.887 354.951C204.729 354.701 205.41 354.416 205.934 354.098C206.298 354.326 206.604 354.643 206.854 355.053C207.105 355.462 207.229 355.895 207.229 356.349C207.229 357.372 206.752 358.134 205.797 358.635C205.069 359.021 204.251 359.282 203.342 359.419C202.432 359.555 201.58 359.624 200.784 359.624ZM199.829 346.219C199.283 346.219 198.805 346.31 198.395 346.492C198.009 346.674 197.691 346.913 197.441 347.208C197.19 347.481 196.997 347.799 196.861 348.163C196.747 348.504 196.679 348.857 196.657 349.221L202.488 348.266C202.421 347.811 202.171 347.356 201.738 346.901C201.306 346.447 200.67 346.219 199.829 346.219ZM221.241 348.572C221.241 347.868 221.036 347.356 220.627 347.038C220.241 346.697 219.706 346.526 219.024 346.526C218.57 346.526 218.114 346.583 217.66 346.697C217.228 346.81 216.853 346.98 216.534 347.208V359.044C216.307 359.112 215.943 359.18 215.443 359.248C214.965 359.316 214.465 359.35 213.942 359.35C213.442 359.35 212.987 359.316 212.578 359.248C212.191 359.18 211.862 359.044 211.589 358.839C211.316 358.635 211.1 358.361 210.941 358.02C210.804 357.657 210.736 357.19 210.736 356.621V346.389C210.736 345.775 210.861 345.276 211.112 344.889C211.384 344.503 211.748 344.15 212.202 343.831C212.976 343.285 213.942 342.842 215.102 342.501C216.284 342.16 217.592 341.99 219.024 341.99C221.594 341.99 223.572 342.558 224.959 343.695C226.346 344.809 227.04 346.367 227.04 348.367V359.044C226.813 359.112 226.449 359.18 225.948 359.248C225.471 359.316 224.97 359.35 224.448 359.35C223.947 359.35 223.493 359.316 223.083 359.248C222.697 359.18 222.367 359.044 222.094 358.839C221.821 358.635 221.605 358.361 221.446 358.02C221.31 357.657 221.241 357.19 221.241 356.621V348.572ZM244.606 354.132C244.606 355.86 243.958 357.213 242.662 358.19C241.366 359.168 239.456 359.658 236.932 359.658C235.977 359.658 235.09 359.589 234.271 359.453C233.452 359.316 232.748 359.112 232.157 358.839C231.588 358.543 231.134 358.179 230.793 357.747C230.474 357.315 230.314 356.803 230.314 356.212C230.314 355.666 230.429 355.212 230.656 354.848C230.883 354.461 231.157 354.144 231.474 353.893C232.134 354.257 232.884 354.587 233.726 354.882C234.59 355.155 235.579 355.292 236.693 355.292C237.397 355.292 237.932 355.189 238.296 354.985C238.683 354.78 238.876 354.508 238.876 354.166C238.876 353.848 238.739 353.598 238.467 353.416C238.193 353.234 237.739 353.086 237.102 352.973L236.079 352.768C234.101 352.381 232.623 351.779 231.645 350.96C230.69 350.118 230.213 348.925 230.213 347.378C230.213 346.537 230.395 345.775 230.759 345.094C231.122 344.411 231.634 343.843 232.293 343.388C232.953 342.934 233.737 342.581 234.646 342.331C235.579 342.08 236.602 341.956 237.716 341.956C238.557 341.956 239.342 342.024 240.07 342.16C240.82 342.274 241.468 342.456 242.014 342.706C242.56 342.956 242.992 343.285 243.31 343.695C243.628 344.082 243.787 344.548 243.787 345.094C243.787 345.616 243.685 346.072 243.48 346.458C243.298 346.821 243.06 347.129 242.764 347.378C242.582 347.265 242.309 347.151 241.946 347.038C241.582 346.901 241.184 346.787 240.751 346.697C240.319 346.583 239.876 346.492 239.422 346.423C238.99 346.355 238.591 346.321 238.228 346.321C237.478 346.321 236.898 346.412 236.489 346.594C236.079 346.753 235.875 347.014 235.875 347.378C235.875 347.629 235.988 347.834 236.215 347.992C236.443 348.152 236.875 348.3 237.512 348.436L238.569 348.675C240.751 349.175 242.298 349.869 243.208 350.755C244.14 351.619 244.606 352.745 244.606 354.132ZM247.272 337.897C247.272 337.033 247.557 336.305 248.125 335.714C248.716 335.123 249.489 334.827 250.444 334.827C251.399 334.827 252.161 335.123 252.729 335.714C253.321 336.305 253.616 337.033 253.616 337.897C253.616 338.76 253.321 339.488 252.729 340.079C252.161 340.671 251.399 340.967 250.444 340.967C249.489 340.967 248.716 340.671 248.125 340.079C247.557 339.488 247.272 338.76 247.272 337.897ZM253.343 359.044C253.093 359.089 252.718 359.146 252.217 359.214C251.74 359.305 251.251 359.35 250.751 359.35C250.25 359.35 249.796 359.316 249.387 359.248C249 359.18 248.67 359.044 248.398 358.839C248.125 358.635 247.908 358.361 247.75 358.02C247.613 357.657 247.545 357.19 247.545 356.621V342.74C247.795 342.694 248.159 342.638 248.636 342.57C249.137 342.478 249.637 342.433 250.137 342.433C250.637 342.433 251.081 342.467 251.467 342.536C251.877 342.604 252.217 342.74 252.491 342.945C252.763 343.15 252.968 343.433 253.105 343.797C253.264 344.139 253.343 344.593 253.343 345.162V359.044ZM267.541 348.572C267.541 347.868 267.336 347.356 266.926 347.038C266.54 346.697 266.006 346.526 265.323 346.526C264.869 346.526 264.414 346.583 263.959 346.697C263.527 346.81 263.152 346.98 262.834 347.208V359.044C262.606 359.112 262.243 359.18 261.742 359.248C261.265 359.316 260.764 359.35 260.241 359.35C259.741 359.35 259.287 359.316 258.877 359.248C258.49 359.18 258.161 359.044 257.888 358.839C257.615 358.635 257.399 358.361 257.24 358.02C257.103 357.657 257.035 357.19 257.035 356.621V346.389C257.035 345.775 257.161 345.276 257.411 344.889C257.683 344.503 258.047 344.15 258.502 343.831C259.275 343.285 260.241 342.842 261.401 342.501C262.583 342.16 263.891 341.99 265.323 341.99C267.893 341.99 269.871 342.558 271.258 343.695C272.646 344.809 273.339 346.367 273.339 348.367V359.044C273.112 359.112 272.748 359.18 272.248 359.248C271.77 359.316 271.27 359.35 270.747 359.35C270.246 359.35 269.792 359.316 269.382 359.248C268.996 359.18 268.666 359.044 268.393 358.839C268.12 358.635 267.904 358.361 267.746 358.02C267.609 357.657 267.541 357.19 267.541 356.621V348.572ZM284.014 355.394C284.401 355.394 284.822 355.36 285.277 355.292C285.754 355.201 286.106 355.087 286.334 354.951V352.222L283.878 352.427C283.241 352.472 282.719 352.609 282.309 352.836C281.9 353.063 281.696 353.404 281.696 353.859C281.696 354.314 281.865 354.689 282.207 354.985C282.571 355.257 283.173 355.394 284.014 355.394ZM283.742 341.99C284.969 341.99 286.084 342.115 287.084 342.365C288.107 342.615 288.972 343.001 289.676 343.525C290.404 344.025 290.961 344.673 291.348 345.469C291.735 346.242 291.928 347.162 291.928 348.232V355.872C291.928 356.463 291.757 356.952 291.416 357.338C291.097 357.702 290.711 358.02 290.256 358.293C288.779 359.18 286.698 359.624 284.014 359.624C282.809 359.624 281.718 359.51 280.74 359.282C279.785 359.055 278.956 358.714 278.25 358.259C277.569 357.804 277.034 357.224 276.647 356.52C276.283 355.814 276.101 354.996 276.101 354.063C276.101 352.494 276.568 351.289 277.5 350.448C278.432 349.607 279.876 349.084 281.831 348.879L286.3 348.402V348.163C286.3 347.504 286.004 347.038 285.413 346.765C284.845 346.469 284.014 346.321 282.923 346.321C282.059 346.321 281.218 346.412 280.399 346.594C279.581 346.776 278.841 347.003 278.182 347.277C277.886 347.072 277.636 346.765 277.432 346.355C277.227 345.923 277.124 345.48 277.124 345.025C277.124 344.434 277.261 343.968 277.534 343.627C277.83 343.263 278.273 342.956 278.864 342.706C279.524 342.456 280.296 342.274 281.184 342.16C282.094 342.046 282.946 341.99 283.742 341.99ZM305.978 348.572C305.978 347.868 305.773 347.356 305.364 347.038C304.977 346.697 304.443 346.526 303.761 346.526C303.306 346.526 302.851 346.583 302.397 346.697C301.965 346.81 301.589 346.98 301.271 347.208V359.044C301.043 359.112 300.68 359.18 300.18 359.248C299.702 359.316 299.202 359.35 298.679 359.35C298.179 359.35 297.724 359.316 297.314 359.248C296.928 359.18 296.599 359.044 296.325 358.839C296.053 358.635 295.837 358.361 295.678 358.02C295.541 357.657 295.473 357.19 295.473 356.621V346.389C295.473 345.775 295.598 345.276 295.848 344.889C296.121 344.503 296.485 344.15 296.939 343.831C297.712 343.285 298.679 342.842 299.838 342.501C301.021 342.16 302.329 341.99 303.761 341.99C306.33 341.99 308.308 342.558 309.695 343.695C311.082 344.809 311.776 346.367 311.776 348.367V359.044C311.549 359.112 311.185 359.18 310.685 359.248C310.207 359.316 309.707 359.35 309.184 359.35C308.684 359.35 308.229 359.316 307.82 359.248C307.433 359.18 307.103 359.044 306.831 358.839C306.558 358.635 306.342 358.361 306.182 358.02C306.046 357.657 305.978 357.19 305.978 356.621V348.572ZM314.641 350.79C314.641 349.289 314.869 347.992 315.324 346.901C315.778 345.787 316.403 344.866 317.199 344.139C318.018 343.411 318.961 342.876 320.03 342.536C321.121 342.172 322.292 341.99 323.544 341.99C323.998 341.99 324.441 342.035 324.874 342.127C325.306 342.194 325.658 342.285 325.931 342.399V336.874C326.158 336.805 326.522 336.737 327.022 336.669C327.523 336.578 328.035 336.532 328.557 336.532C329.058 336.532 329.501 336.566 329.887 336.635C330.297 336.703 330.638 336.84 330.91 337.044C331.184 337.249 331.389 337.533 331.524 337.897C331.661 338.238 331.729 338.692 331.729 339.261V355.428C331.729 356.497 331.229 357.349 330.229 357.986C329.569 358.418 328.716 358.793 327.671 359.112C326.624 359.453 325.419 359.624 324.055 359.624C322.577 359.624 321.247 359.419 320.064 359.009C318.905 358.6 317.916 358.008 317.097 357.235C316.301 356.463 315.688 355.542 315.256 354.473C314.845 353.382 314.641 352.154 314.641 350.79ZM324.328 346.526C323.1 346.526 322.157 346.879 321.497 347.583C320.838 348.288 320.508 349.357 320.508 350.79C320.508 352.199 320.815 353.268 321.429 353.996C322.043 354.701 322.93 355.053 324.089 355.053C324.499 355.053 324.862 354.996 325.181 354.882C325.522 354.746 325.783 354.598 325.965 354.439V346.935C325.511 346.663 324.965 346.526 324.328 346.526ZM352.499 350.79C352.499 352.199 352.283 353.461 351.851 354.575C351.419 355.667 350.805 356.588 350.009 357.338C349.236 358.089 348.304 358.657 347.212 359.044C346.121 359.43 344.905 359.624 343.563 359.624C342.221 359.624 341.005 359.419 339.913 359.009C338.822 358.6 337.878 358.02 337.082 357.27C336.309 356.497 335.707 355.565 335.275 354.473C334.842 353.382 334.626 352.154 334.626 350.79C334.626 349.448 334.842 348.232 335.275 347.14C335.707 346.049 336.309 345.128 337.082 344.377C337.878 343.604 338.822 343.013 339.913 342.604C341.005 342.194 342.221 341.99 343.563 341.99C344.905 341.99 346.121 342.206 347.212 342.638C348.304 343.047 349.236 343.638 350.009 344.411C350.805 345.162 351.419 346.083 351.851 347.174C352.283 348.266 352.499 349.471 352.499 350.79ZM340.561 350.79C340.561 352.177 340.823 353.245 341.345 353.996C341.891 354.723 342.642 355.087 343.597 355.087C344.552 355.087 345.279 354.712 345.78 353.962C346.303 353.211 346.564 352.154 346.564 350.79C346.564 349.425 346.303 348.379 345.78 347.652C345.256 346.901 344.518 346.526 343.563 346.526C342.608 346.526 341.869 346.901 341.345 347.652C340.823 348.379 340.561 349.425 340.561 350.79Z" fill="#648DB3"/>
<path d="M256.733 74.3746C258.565 72.5072 258.537 69.5076 256.668 67.6763L226.234 37.82C224.366 35.9879 221.366 36.0168 219.534 37.8844C217.702 39.7522 217.731 42.7513 219.598 44.5835L246.652 71.1221L220.114 98.1763C218.282 100.044 218.311 103.043 220.178 104.875C222.046 106.706 225.045 106.679 226.877 104.811L256.733 74.3746ZM153.871 72.0146L153.916 76.7508L203.656 76.2733L203.611 71.5361L203.566 66.799L153.826 67.2774L153.871 72.0146ZM203.611 71.5361L203.656 76.2733L253.398 75.7948L253.351 71.0577L253.306 66.3205L203.566 66.799L203.611 71.5361Z" fill="#5459AC"/>
<path d="M150.521 116.027C148.672 117.877 148.672 120.876 150.521 122.727L180.668 152.874C182.519 154.724 185.519 154.724 187.367 152.874C189.218 151.024 189.218 148.025 187.367 146.174L160.571 119.377L187.367 92.5793C189.218 90.7294 189.218 87.7298 187.367 85.8804C185.519 84.0301 182.519 84.0301 180.668 85.8804L150.521 116.027ZM253.357 119.377V114.64H203.613V119.377V124.114H253.357V119.377ZM203.613 119.377V114.64H153.871V119.377V124.114H203.613V119.377Z" fill="#5459AC"/>
<defs>
<filter id="filter0_d_37_273" x="28.2292" y="231.1" width="350.765" height="106.592" filterUnits="userSpaceOnUse" color-interpolation-filters="sRGB">
<feFlood flood-opacity="0" result="BackgroundImageFix"/>
<feColorMatrix in="SourceAlpha" type="matrix" values="0 0 0 0 0 0 0 0 0 0 0 0 0 0 0 0 0 0 127 0" result="hardAlpha"/>
<feOffset dy="4"/>
<feGaussianBlur stdDeviation="2"/>
<feComposite in2="hardAlpha" operator="out"/>
<feColorMatrix type="matrix" values="0 0 0 0 0 0 0 0 0 0 0 0 0 0 0 0 0 0 0.25 0"/>
<feBlend mode="normal" in2="BackgroundImageFix" result="effect1_dropShadow_37_273"/>
<feBlend mode="normal" in="SourceGraphic" in2="effect1_dropShadow_37_273" result="shape"/>
</filter>
</defs>
</svg>
