<svg width="389" height="347" viewBox="0 0 389 347" fill="none" xmlns="http://www.w3.org/2000/svg">
<mask id="mask0_37_291" style="mask-type:luminance" maskUnits="userSpaceOnUse" x="0" y="0" width="389" height="347">
<path d="M389 0H0V346.968H389V0Z" fill="white"/>
</mask>
<g mask="url(#mask0_37_291)">
<path d="M89.3228 19.5274V14.708C89.3228 6.72232 95.1087 0.248779 102.248 0.248779H171.18C180.173 0.248779 188.09 5.38429 192.722 13.1764C197.354 5.38429 205.272 0.248779 214.264 0.248779H283.197C290.335 0.248779 296.122 6.72232 296.122 14.708V19.5274L300.421 19.5277C309.942 19.5277 317.664 28.1058 317.664 38.7613V192.987C317.664 193.204 317.661 193.418 317.654 193.632V202.627C317.654 210.603 311.877 217.136 304.72 217.136L207.65 217.137C204.67 222.9 199.101 226.776 192.722 226.776C186.343 226.776 180.775 222.9 177.795 217.137L80.7157 217.138C73.5581 217.138 67.7811 210.7 67.7811 202.725V38.7613C67.7811 28.1058 75.5032 19.5277 85.024 19.5277L89.3228 19.5274ZM192.74 177.403H192.706L192.722 177.441L192.74 177.403ZM83.4887 29.3175C79.4375 30.1195 76.3976 34.0447 76.3976 38.7613V193.083C76.3976 198.379 80.2304 202.677 85.024 202.677H180.28L181.525 205.084C183.766 209.418 187.943 212.316 192.722 212.316C197.502 212.316 201.68 209.418 203.92 205.084L205.164 202.677H300.421C305.177 202.677 309.047 198.325 309.047 192.987V38.7613C309.047 34.0447 306.007 30.1195 301.956 29.3175L304.739 33.9868V173.758C304.739 181.744 298.953 188.218 291.814 188.218H197.539L192.722 198.995L187.905 188.218H93.6316C86.4927 188.218 80.7058 181.744 80.7058 173.758V33.9868L83.4887 29.3175Z" fill="#648DB3"/>
<path d="M89.3228 19.2786V14.4592C89.3228 6.47354 95.1087 0 102.248 0H171.18C180.173 0 188.09 5.13552 192.722 12.9275C197.354 5.13552 205.272 0 214.264 0H283.197C290.335 0 296.122 6.47354 296.122 14.4592V19.2786L300.421 19.2789C309.942 19.2789 317.664 27.8571 317.664 38.5124V192.738C317.664 192.956 317.661 193.17 317.654 193.384V202.379C317.654 210.354 311.877 216.888 304.72 216.888H256.185L207.65 216.888C204.67 222.651 199.101 226.527 192.722 226.527C186.343 226.527 180.775 222.651 177.795 216.888L80.7157 216.889C73.5581 216.889 67.7811 210.452 67.7811 202.475V38.5124C67.7811 27.8571 75.5032 19.2789 85.024 19.2789L89.3228 19.2786ZM102.248 9.63941C99.8687 9.63941 97.9395 11.7973 97.9395 14.4592V159.051C97.9395 161.713 99.8687 163.871 102.248 163.871H173.455C179.129 163.871 189.576 169.895 192.74 177.154V107.421L192.722 26.9675C192.722 16.3201 180.698 9.63941 171.18 9.63941H102.248ZM192.722 26.9675L192.735 96.1838L192.74 177.154C197.539 170.345 206.316 163.871 211.99 163.871H283.197C285.577 163.871 287.505 161.713 287.505 159.051V14.4592C287.505 11.7973 285.577 9.63941 283.197 9.63941H214.264C204.746 9.63941 192.722 16.3201 192.722 26.9675ZM192.74 177.154H192.706L192.722 177.193L192.74 177.154Z" fill="#52357B"/>
<path d="M89.3228 19.2786V14.4592C89.3228 6.47354 95.1087 0 102.248 0H171.18C180.173 0 188.09 5.13552 192.722 12.9275C197.354 5.13552 205.272 0 214.264 0H283.197C290.335 0 296.122 6.47354 296.122 14.4592V19.2786L300.421 19.2789C309.942 19.2789 317.664 27.8571 317.664 38.5124V192.738C317.664 192.956 317.661 193.17 317.654 193.384V202.379C317.654 210.354 311.877 216.888 304.72 216.888L207.65 216.888C204.67 222.651 199.101 226.527 192.722 226.527C186.343 226.527 180.775 222.651 177.795 216.888L80.7157 216.889C73.5581 216.889 67.7811 210.452 67.7811 202.475V38.5124C67.7811 27.8571 75.5032 19.2789 85.024 19.2789L89.3228 19.2786ZM102.248 9.63941C99.8687 9.63941 97.9395 11.7973 97.9395 14.4592V159.051C97.9395 161.713 99.8687 163.871 102.248 163.871H173.455C179.129 163.871 189.576 169.895 192.74 177.154V107.421L192.722 26.9675C192.722 16.3201 180.698 9.63941 171.18 9.63941H102.248ZM192.722 26.9675L192.735 96.1838L192.74 177.154C197.539 170.345 206.316 163.871 211.99 163.871H283.197C285.577 163.871 287.505 161.713 287.505 159.051V14.4592C287.505 11.7973 285.577 9.63941 283.197 9.63941H214.264C204.746 9.63941 192.722 16.3201 192.722 26.9675ZM192.74 177.154H192.706L192.722 177.193L192.74 177.154ZM83.4887 29.0688C79.4375 29.8707 76.3976 33.7959 76.3976 38.5124V192.834C76.3976 198.13 80.2304 202.428 85.024 202.428H180.28L181.525 204.834C183.766 209.169 187.943 212.068 192.722 212.068C197.502 212.068 201.68 209.169 203.92 204.834L205.164 202.428H300.421C305.177 202.428 309.047 198.076 309.047 192.738V38.5124C309.047 33.7959 306.007 29.8707 301.956 29.0688L304.739 33.738V173.51C304.739 181.496 298.953 187.969 291.814 187.969H197.539L192.722 198.746L187.905 187.969H93.6316C86.4927 187.969 80.7058 181.496 80.7058 173.51V33.738L83.4887 29.0688Z" fill="#5459AC"/>
<path d="M384.619 298.989C387.038 299 388.99 300.971 388.979 303.391C388.967 305.81 386.997 307.762 384.578 307.751L4.36008 305.998C1.94091 305.986 -0.0111682 304.016 -1.34667e-05 301.596C0.0113224 299.177 1.98193 297.225 4.40115 297.236L384.619 298.989Z" fill="#5459AC"/>
<g filter="url(#filter0_d_37_291)">
<path d="M83.9184 271.81C83.9184 274.422 83.5814 276.727 82.9072 278.72C82.2609 280.715 81.3342 282.443 80.1261 283.903C78.9469 285.364 77.5419 286.585 75.9132 287.569C74.2836 288.552 72.5002 289.339 70.5623 289.929C68.6522 290.519 66.6154 290.94 64.4528 291.193C62.318 291.446 60.1409 291.572 57.9217 291.572C55.0005 291.572 52.304 291.347 49.8321 290.898C47.3602 290.476 45.0289 289.803 42.8379 288.875C40.675 287.921 38.5823 286.698 36.5599 285.209C34.5656 283.72 32.5712 281.908 30.5769 279.774L39.1722 271.052C39.9587 272.991 41.0402 274.788 42.4165 276.444C43.7929 278.074 45.2957 279.479 46.9249 280.659C48.5822 281.838 50.2956 282.765 52.0652 283.439C53.8349 284.114 55.5062 284.452 57.0793 284.452C58.9329 284.452 60.6748 284.325 62.3036 284.072C63.9332 283.79 65.3516 283.341 66.5597 282.724C67.7669 282.105 68.7079 281.291 69.3821 280.279C70.0841 279.24 70.4356 277.948 70.4356 276.402C70.4356 275.223 70.1686 274.212 69.6347 273.369C69.1017 272.526 68.3996 271.81 67.5287 271.221C66.6855 270.602 65.7166 270.082 64.6208 269.661C63.526 269.24 62.4024 268.888 61.2501 268.607C60.1265 268.299 59.0174 268.032 57.9217 267.807C56.8263 267.555 55.8573 267.301 55.0146 267.048C53.3573 266.571 51.6298 266.065 49.8321 265.532C48.0344 264.97 46.2648 264.337 44.5233 263.635C42.7817 262.933 41.1245 262.132 39.5515 261.233C38.0065 260.307 36.6443 259.225 35.4645 257.989C34.2848 256.725 33.3437 255.278 32.6414 253.649C31.9392 251.992 31.5881 250.096 31.5881 247.961C31.5881 245.404 31.8971 243.142 32.5151 241.176C33.1611 239.182 34.06 237.454 35.2116 235.994C36.3634 234.533 37.7257 233.311 39.2987 232.328C40.8716 231.317 42.5992 230.517 44.4811 229.926C46.3631 229.308 48.3574 228.872 50.4642 228.62C52.5989 228.339 54.7759 228.198 56.9949 228.198C60.0286 228.198 62.7818 228.48 65.2536 229.041C67.7534 229.603 70.0562 230.403 72.1632 231.443C74.2701 232.482 76.1936 233.733 77.9356 235.194C79.7055 236.625 81.3621 238.227 82.9072 239.996L74.3123 248.719C73.6382 246.697 72.6971 244.87 71.489 243.241C70.3088 241.612 68.9893 240.221 67.5287 239.07C66.068 237.891 64.5372 236.992 62.9355 236.373C61.3346 235.726 59.7895 235.404 58.3009 235.404C56.363 235.404 54.5793 235.544 52.9501 235.825C51.3209 236.078 49.9164 236.513 48.7366 237.132C47.585 237.722 46.6861 238.535 46.0401 239.576C45.394 240.587 45.071 241.851 45.071 243.368C45.071 244.576 45.3098 245.601 45.7872 246.443C46.2648 247.287 46.8968 248.003 47.6833 248.592C48.4979 249.183 49.4108 249.674 50.422 250.068C51.4333 250.433 52.4726 250.756 53.5399 251.037C54.6354 251.317 55.7028 251.57 56.7421 251.795C57.8094 251.992 58.7783 252.216 59.6492 252.469C61.3346 252.947 63.1045 253.452 64.9579 253.986C66.8123 254.521 68.6378 255.152 70.4356 255.882C72.2333 256.585 73.9465 257.4 75.5761 258.326C77.2049 259.253 78.6377 260.363 79.8735 261.655C81.1095 262.919 82.0929 264.394 82.8228 266.079C83.5535 267.737 83.9184 269.647 83.9184 271.81ZM114.761 290.35H101.952L88.6378 241.682H102.879L111.222 275.813L118.173 241.682H130.982L139.493 276.74L147.71 241.682H157.569L142.822 290.35H130.013L122.808 260.77L114.761 290.35ZM213.227 290.35H198.987V284.535C197.301 286.839 195.265 288.552 192.878 289.676C190.517 290.772 187.919 291.319 185.083 291.319C181.375 291.319 178.06 290.66 175.139 289.339C172.218 288.018 169.746 286.221 167.724 283.945C165.701 281.641 164.156 278.945 163.088 275.855C162.021 272.765 161.487 269.451 161.487 265.91C161.487 262.371 162.021 259.057 163.088 255.966C164.156 252.876 165.701 250.194 167.724 247.919C169.746 245.615 172.218 243.803 175.139 242.483C178.06 241.162 181.375 240.503 185.083 240.503C186.965 240.503 188.747 240.783 190.433 241.345C192.147 241.907 193.706 242.708 195.11 243.747C196.542 244.758 197.793 245.994 198.86 247.455C199.956 248.888 200.813 250.488 201.431 252.258L207.751 241.682H213.227V290.35ZM198.903 265.91C198.903 264.647 198.832 263.312 198.691 261.908C198.579 260.503 198.368 259.113 198.06 257.736C197.751 256.361 197.315 255.053 196.753 253.817C196.22 252.554 195.517 251.444 194.647 250.488C193.804 249.505 192.779 248.733 191.571 248.171C190.363 247.609 188.958 247.329 187.357 247.329C185.756 247.329 184.366 247.624 183.187 248.214C182.007 248.775 180.995 249.547 180.153 250.53C179.31 251.486 178.608 252.596 178.046 253.86C177.512 255.123 177.091 256.444 176.782 257.82C176.473 259.198 176.249 260.588 176.108 261.992C175.995 263.368 175.939 264.676 175.939 265.91C175.939 267.147 175.995 268.467 176.108 269.872C176.249 271.276 176.473 272.666 176.782 274.043C177.091 275.42 177.512 276.74 178.046 278.004C178.608 279.268 179.31 280.392 180.153 281.376C180.995 282.33 182.007 283.103 183.187 283.693C184.366 284.255 185.756 284.535 187.357 284.535C188.818 284.535 190.111 284.24 191.234 283.65C192.385 283.032 193.382 282.218 194.226 281.206C195.097 280.195 195.827 279.043 196.416 277.751C197.007 276.459 197.484 275.124 197.849 273.748C198.214 272.372 198.48 271.009 198.649 269.661C198.818 268.285 198.903 267.034 198.903 265.91ZM276.893 265.91C276.893 269.451 276.358 272.765 275.291 275.855C274.224 278.945 272.679 281.641 270.657 283.945C268.634 286.221 266.162 288.018 263.241 289.339C260.319 290.66 257.006 291.319 253.298 291.319C250.46 291.319 247.847 290.772 245.46 289.676C243.101 288.552 241.078 286.839 239.393 284.535V312.809H225.151V241.682H230.629L236.949 252.258C237.568 250.488 238.41 248.888 239.478 247.455C240.572 245.994 241.822 244.758 243.228 243.747C244.659 242.708 246.219 241.907 247.904 241.345C249.617 240.783 251.415 240.503 253.298 240.503C257.006 240.503 260.319 241.162 263.241 242.483C266.162 243.803 268.634 245.615 270.657 247.919C272.679 250.194 274.224 252.876 275.291 255.966C276.358 259.057 276.893 262.371 276.893 265.91ZM262.44 265.91C262.44 264.676 262.37 263.368 262.23 261.992C262.117 260.588 261.907 259.198 261.597 257.82C261.288 256.444 260.854 255.123 260.292 253.86C259.757 252.596 259.069 251.486 258.227 250.53C257.385 249.547 256.359 248.775 255.151 248.214C253.972 247.624 252.594 247.329 251.022 247.329C249.393 247.329 247.974 247.609 246.766 248.171C245.586 248.733 244.562 249.505 243.69 250.488C242.848 251.444 242.146 252.554 241.584 253.817C241.05 255.053 240.629 256.361 240.32 257.736C240.01 259.113 239.786 260.503 239.646 261.908C239.533 263.312 239.478 264.647 239.478 265.91C239.478 267.034 239.561 268.285 239.73 269.661C239.898 271.009 240.166 272.372 240.531 273.748C240.896 275.124 241.374 276.459 241.963 277.751C242.554 279.043 243.269 280.195 244.113 281.206C244.983 282.218 245.98 283.032 247.104 283.65C248.255 284.24 249.561 284.535 251.022 284.535C252.623 284.535 254.014 284.255 255.193 283.693C256.372 283.103 257.385 282.33 258.227 281.376C259.069 280.392 259.757 279.268 260.292 278.004C260.854 276.74 261.288 275.42 261.597 274.043C261.907 272.666 262.117 271.276 262.23 269.872C262.37 268.467 262.44 267.147 262.44 265.91ZM300.319 290.35H286.077V219.266H291.555L300.319 234.056V290.35ZM355.768 241.682L338.071 284.493C336.048 289.381 333.788 294.213 331.287 298.988C328.816 303.792 326.133 308.399 323.24 312.809L317.678 309.438C318.38 308.174 319.209 306.713 320.164 305.055C321.119 303.398 322.061 301.685 322.987 299.916C323.914 298.146 324.77 296.39 325.557 294.648C326.343 292.934 326.948 291.361 327.369 289.929L306.091 241.682H320.333L334.785 274.591L345.908 241.682H355.768Z" fill="#52357B"/>
</g>
<path d="M243.57 70.566C245.308 68.7943 245.281 65.9483 243.509 64.2107L214.634 35.8834C212.863 34.1451 210.016 34.1726 208.278 35.9445C206.541 37.7166 206.568 40.5622 208.339 42.3005L234.006 67.4801L208.828 93.1488C207.09 94.9205 207.118 97.7663 208.89 99.5047C210.661 101.242 213.507 101.216 215.245 99.4433L243.57 70.566ZM145.982 68.3268L146.025 72.8205L193.215 72.3674L193.172 67.8729L193.129 63.3783L145.939 63.8323L145.982 68.3268ZM193.172 67.8729L193.215 72.3674L240.406 71.9135L240.362 67.4189L240.319 62.9244L193.129 63.3783L193.172 67.8729Z" fill="#5459AC"/>
<path d="M142.803 110.085C141.049 111.84 141.049 114.686 142.803 116.442L171.405 145.045C173.161 146.8 176.007 146.8 177.761 145.045C179.516 143.29 179.516 140.444 177.761 138.688L152.338 113.263L177.761 87.8381C179.516 86.0829 179.516 83.2369 177.761 81.4822C176.007 79.7266 173.161 79.7266 171.405 81.4822L142.803 110.085ZM240.367 113.263V108.769H193.174V113.263V117.758H240.367V113.263ZM193.174 113.263V108.769H145.982V113.263V117.758H193.174V113.263Z" fill="#5459AC"/>
</g>
<defs>
<filter id="filter0_d_37_291" x="26.5769" y="219.266" width="333.191" height="101.543" filterUnits="userSpaceOnUse" color-interpolation-filters="sRGB">
<feFlood flood-opacity="0" result="BackgroundImageFix"/>
<feColorMatrix in="SourceAlpha" type="matrix" values="0 0 0 0 0 0 0 0 0 0 0 0 0 0 0 0 0 0 127 0" result="hardAlpha"/>
<feOffset dy="4"/>
<feGaussianBlur stdDeviation="2"/>
<feComposite in2="hardAlpha" operator="out"/>
<feColorMatrix type="matrix" values="0 0 0 0 0 0 0 0 0 0 0 0 0 0 0 0 0 0 0.25 0"/>
<feBlend mode="normal" in2="BackgroundImageFix" result="effect1_dropShadow_37_291"/>
<feBlend mode="normal" in="SourceGraphic" in2="effect1_dropShadow_37_291" result="shape"/>
</filter>
</defs>
</svg>
